<svg xmlns="http://www.w3.org/2000/svg" width="640" height="360" viewBox="0 0 640 360"><rect width="640" height="360" fill="#eef3f8"/><rect x="90" y="70" width="65" height="65" rx="8" fill="#286431" opacity="0.2"/><rect x="166" y="70" width="65" height="65" rx="8" fill="#286431" opacity="0.45"/><rect x="242" y="70" width="65" height="65" rx="8" fill="#286431" opacity="0.7"/><rect x="318" y="70" width="65" height="65" rx="8" fill="#286431" opacity="0.2"/><rect x="394" y="70" width="65" height="65" rx="8" fill="#286431" opacity="0.45"/><rect x="470" y="70" width="65" height="65" rx="8" fill="#286431" opacity="0.7"/><rect x="90" y="146" width="65" height="65" rx="8" fill="#286431" opacity="0.45"/><rect x="166" y="146" width="65" height="65" rx="8" fill="#286431" opacity="0.7"/><rect x="242" y="146" width="65" height="65" rx="8" fill="#286431" opacity="0.2"/><rect x="318" y="146" width="65" height="65" rx="8" fill="#286431" opacity="0.45"/><rect x="394" y="146" width="65" height="65" rx="8" fill="#286431" opacity="0.7"/><rect x="470" y="146" width="65" height="65" rx="8" fill="#286431" opacity="0.2"/><rect x="90" y="222" width="65" height="65" rx="8" fill="#286431" opacity="0.7"/><rect x="166" y="222" width="65" height="65" rx="8" fill="#286431" opacity="0.2"/><rect x="242" y="222" width="65" height="65" rx="8" fill="#286431" opacity="0.45"/><rect x="318" y="222" width="65" height="65" rx="8" fill="#286431" opacity="0.7"/><rect x="394" y="222" width="65" height="65" rx="8" fill="#286431" opacity="0.2"/><rect x="470" y="222" width="65" height="65" rx="8" fill="#286431" opacity="0.45"/></svg>